<svg id="visual" viewBox="0 0 900 600" width="900" height="600" xmlns="http://www.w3.org/2000/svg" xmlns:xlink="http://www.w3.org/1999/xlink" version="1.1"><rect x="0" y="0" width="900" height="600" fill="#e5e5e5"></rect><path d="M0 462L25 462C50 462 100 462 150 469.2C200 476.3 250 490.7 300 500C350 509.3 400 513.7 450 514.3C500 515 550 512 600 504.8C650 497.7 700 486.3 750 488.2C800 490 850 505 875 512.5L900 520L900 601L875 601C850 601 800 601 750 601C700 601 650 601 600 601C550 601 500 601 450 601C400 601 350 601 300 601C250 601 200 601 150 601C100 601 50 601 25 601L0 601Z" fill="#fac3ae"></path><path d="M0 514L25 516.7C50 519.3 100 524.7 150 530.7C200 536.7 250 543.3 300 543.7C350 544 400 538 450 527.8C500 517.7 550 503.3 600 496.8C650 490.3 700 491.7 750 497C800 502.3 850 511.7 875 516.3L900 521L900 601L875 601C850 601 800 601 750 601C700 601 650 601 600 601C550 601 500 601 450 601C400 601 350 601 300 601C250 601 200 601 150 601C100 601 50 601 25 601L0 601Z" fill="#f38f6c"></path><path d="M0 570L25 567.3C50 564.7 100 559.3 150 557C200 554.7 250 555.3 300 552.2C350 549 400 542 450 537.2C500 532.3 550 529.7 600 536.5C650 543.3 700 559.7 750 567C800 574.3 850 572.7 875 571.8L900 571L900 601L875 601C850 601 800 601 750 601C700 601 650 601 600 601C550 601 500 601 450 601C400 601 350 601 300 601C250 601 200 601 150 601C100 601 50 601 25 601L0 601Z" fill="#e5562f"></path></svg>